<?xml version="1.0" standalone="no"?>
<!DOCTYPE svg PUBLIC "-//W3C//DTD SVG 20010904//EN"
 "http://www.w3.org/TR/2001/REC-SVG-20010904/DTD/svg10.dtd">
<svg version="1.0" xmlns="http://www.w3.org/2000/svg"
 width="700.000000pt" height="700.000000pt" viewBox="0 0 700.000000 700.000000"
 preserveAspectRatio="xMidYMid meet">
<metadata>
Created by potrace 1.11, written by Peter Selinger 2001-2013
</metadata>
<g transform="translate(0.000000,700.000000) scale(0.100000,-0.100000)"
fill="#000000" stroke="none">
<path d="M3598 6495 c-2 -2 -32 -5 -68 -8 -132 -12 -279 -68 -414 -158 -81
-54 -213 -190 -261 -267 l-38 -62 -76 73 c-129 125 -264 208 -421 260 -109 36
-148 42 -310 41 -121 0 -159 -4 -230 -23 -438 -121 -731 -515 -739 -994 -3
-169 25 -308 96 -477 56 -133 133 -243 247 -355 l101 -99 -120 -121 c-293
-292 -477 -604 -572 -965 l-25 -97 -182 -57 c-99 -32 -185 -58 -191 -60 -56
-13 -314 -101 -332 -113 -87 -57 -76 -210 18 -259 17 -8 101 -37 187 -64 86
-27 234 -73 329 -102 l171 -53 27 -105 c72 -277 214 -549 420 -800 98 -120
315 -321 465 -431 447 -330 1021 -558 1619 -645 25 -4 55 -8 66 -10 11 -2 49
-7 85 -10 36 -3 76 -8 90 -10 135 -22 606 -21 800 1 19 2 62 6 95 10 62 6 66
7 180 26 39 6 82 13 96 15 14 2 48 8 75 14 27 7 56 13 64 15 92 20 237 61 360
103 786 265 1397 796 1650 1432 52 131 102 316 124 465 18 117 13 455 -8 570
-3 17 -11 57 -17 90 -29 161 -120 422 -191 549 -50 91 -66 119 -101 176 -34
55 -149 214 -166 230 -3 3 -37 40 -75 83 -68 77 -229 228 -296 277 -18 14 -54
41 -79 60 -25 20 -74 53 -108 75 -35 22 -64 45 -66 50 -4 9 25 191 38 245 3
14 8 34 10 45 26 122 123 374 138 359 15 -16 145 -5 202 17 72 27 156 106 187
176 29 63 29 66 30 150 1 60 -4 82 -30 135 -33 70 -61 103 -124 146 -38 26
-57 33 -118 49 -32 8 -117 5 -158 -6 -187 -51 -297 -257 -235 -439 8 -26 25
-61 38 -80 l22 -33 -37 -87 c-67 -156 -149 -441 -150 -522 -1 -48 -11 -49 -90
-11 -126 61 -238 107 -385 157 -77 26 -143 50 -147 53 -16 14 62 286 117 409
l27 60 64 -6 c225 -18 402 183 361 408 -37 207 -280 335 -468 248 -96 -44
-173 -129 -200 -220 -25 -83 -5 -213 42 -280 24 -33 24 -49 0 -96 -35 -69 -92
-233 -121 -349 -16 -64 -31 -117 -33 -119 -2 -2 -57 7 -123 20 -65 13 -139 27
-164 30 -25 3 -64 9 -87 12 l-41 6 12 37 c47 132 54 376 17 526 -69 271 -249
499 -481 607 -62 29 -136 55 -176 62 -79 15 -209 27 -216 21z"/>
</g>
</svg>
